<?xml version="1.0" standalone="no"?>
<!DOCTYPE svg PUBLIC "-//W3C//DTD SVG 1.1//EN" "http://www.w3.org/Graphics/SVG/1.1/DTD/svg11.dtd">
<svg width="100%" height="100%" viewBox="0 0 128 128" version="1.1" xmlns="http://www.w3.org/2000/svg" xmlns:xlink="http://www.w3.org/1999/xlink" xml:space="preserve" style="fill-rule:evenodd;clip-rule:evenodd;stroke-linejoin:round;stroke-miterlimit:1.41421;">
    <g id="Ebene 1" transform="matrix(0.140923,-0.0271691,0.0271691,0.140923,22.1896,11.3701)">
        <g id="path3" transform="matrix(7.89701,1.28777e-15,6.11041e-16,7.89701,-1466.93,-2857.93)">
            <path d="M179.22,390.074C192.5,403.89 180.267,442.623 208.633,442.927C215.322,442.998 222.061,437.872 225.698,435.979C237.485,429.843 246.935,424.891 239.07,407.56C233.369,394.994 220.617,389.845 214.257,378.977C210.191,372.032 214.38,362.627 203.665,360.495C192.256,358.221 173.945,384.893 179.22,390.074" style="fill:black;fill-opacity:0.75;"/>
        </g>
        <g id="path13" transform="matrix(7.89701,1.53215e-15,6.29627e-16,7.89701,-1466.93,-2857.93)">
            <path d="M179.22,390.074C171.016,397.972 177.047,403.251 184.517,405.92C184.022,399.98 182.541,393.925 179.22,390.074" style="fill:black;fill-opacity:0.75;"/>
        </g>
        <g id="path9" transform="matrix(7.89701,1.28777e-15,6.11041e-16,7.89701,-1466.93,-2857.93)">
            <path d="M195.364,367.118C205.285,360.963 213.186,373.983 205.82,381.456C199.365,388.004 194.16,396.014 196.697,405.568C199.542,416.287 239.146,452.546 238.438,426.245C230.139,431.541 198.264,407.528 199.984,394.799C201.331,384.828 213.328,383.07 209.763,371.816C207.035,363.2 199.59,361.698 195.364,367.118" style="fill:black;"/>
        </g>
        <g id="path11" transform="matrix(7.89701,1.28777e-15,6.11041e-16,7.89701,-1466.93,-2857.93)">
            <path d="M198.007,384.822C187.075,386.155 175.729,387.265 189.111,374.406C185.645,382.172 191.884,387.401 198.007,384.822" style="fill:black;"/>
        </g>
        <g id="path15" transform="matrix(7.89701,1.28777e-15,6.11041e-16,7.89701,-1466.93,-2857.93)">
            <path d="M207.04,363.415C219.377,375.479 206.392,388.85 214.837,400.899C220.205,408.556 243.845,423.797 237.307,431.799C241.99,422.633 215.423,409.337 211.13,399.007C205.756,386.074 215.67,376.43 207.04,363.415" style="fill:black;"/>
        </g>
        <g transform="matrix(9.26965,1.78713,-1.78713,9.26965,-255.048,-295.922)">
            <path d="M94.865,107.783C74.41,98.871 68.519,82.511 60.685,99.664C61.447,90.764 70.576,86.309 70.576,86.309C74.518,79.365 81.089,81.405 85.873,74.917C88.663,80.936 86.76,86.464 88.218,92.539C89.957,99.787 91.048,101.631 95.205,107.93C95.092,107.881 94.979,107.833 94.866,107.783C94.663,107.639 94.462,107.492 94.265,107.345C85.968,100.983 87.257,88.585 85.553,78.89C84.069,83.346 81.477,83.354 77.722,83.854C77.089,84.093 74.748,84.86 74.395,84.968C82.195,91.664 85.461,100.778 94.265,107.345C94.46,107.494 94.66,107.64 94.865,107.783ZM74.395,84.968L74.392,84.965C74.333,84.986 74.339,84.985 74.395,84.968ZM77.722,83.854C77.973,83.759 77.956,83.747 77.445,83.891C77.538,83.878 77.631,83.866 77.722,83.854Z" style="fill:black;fill-opacity:0.33;"/>
        </g>
        <g id="path23" transform="matrix(7.89701,1.28777e-15,6.11041e-16,7.89701,-1466.93,-2857.93)">
            <path d="M225.383,440.426C230.088,440.677 233.215,441.405 236.032,436.391C235.834,448.439 231.31,463.104 240.438,472.427C231.048,462.586 229.374,450.842 221.556,440.996C220.835,441.104 227.87,440.217 225.383,440.426" style="fill:black;fill-opacity:0.33;"/>
        </g>
    </g>
</svg>
