<?xml version="1.0" encoding="UTF-8" standalone="no"?>
<!-- Created with Inkscape (http://www.inkscape.org/) -->

<svg
   xmlns:dc="http://purl.org/dc/elements/1.1/"
   xmlns:cc="http://creativecommons.org/ns#"
   xmlns:rdf="http://www.w3.org/1999/02/22-rdf-syntax-ns#"
   xmlns:svg="http://www.w3.org/2000/svg"
   xmlns="http://www.w3.org/2000/svg"
   xmlns:sodipodi="http://sodipodi.sourceforge.net/DTD/sodipodi-0.dtd"
   xmlns:inkscape="http://www.inkscape.org/namespaces/inkscape"
   width="210mm"
   height="297mm"
   id="svg2"
   version="1.1"
   inkscape:version="0.48.2 r9819"
   sodipodi:docname="Neues Dokument 1">
  <defs
     id="defs4">
    <inkscape:perspective
       sodipodi:type="inkscape:persp3d"
       inkscape:vp_x="-38.5 : 452.18109 : 1"
       inkscape:vp_y="0 : 1000 : 0"
       inkscape:vp_z="705.59448 : 452.18109 : 1"
       inkscape:persp3d-origin="333.54724 : 276.78739 : 1"
       id="perspective4491" />
  </defs>
  <sodipodi:namedview
     id="base"
     pagecolor="#ffffff"
     bordercolor="#666666"
     borderopacity="1.0"
     inkscape:pageopacity="0.0"
     inkscape:pageshadow="2"
     inkscape:zoom="2"
     inkscape:cx="325.60372"
     inkscape:cy="560.56595"
     inkscape:document-units="px"
     inkscape:current-layer="layer1"
     showgrid="false"
     inkscape:snap-grids="true"
     showguides="false"
     inkscape:window-width="1920"
     inkscape:window-height="1018"
     inkscape:window-x="-8"
     inkscape:window-y="-8"
     inkscape:window-maximized="1" />
  <metadata
     id="metadata7">
    <rdf:RDF>
      <cc:Work
         rdf:about="">
        <dc:format>image/svg+xml</dc:format>
        <dc:type
           rdf:resource="http://purl.org/dc/dcmitype/StillImage" />
        <dc:title></dc:title>
      </cc:Work>
    </rdf:RDF>
  </metadata>
  <g
     inkscape:label="Ebene 1"
     inkscape:groupmode="layer"
     id="layer1">
    <path
       style="fill:#ff177d;fill-rule:evenodd;stroke-width:1.01100004000000010;stroke-miterlimit:4;stroke-dasharray:none;"
       d="m 179.21957,390.07433 c 13.28,13.816 1.047,52.549 29.413,52.853 6.689,0.071 13.428,-5.055 17.065,-6.948 11.787,-6.136 21.237,-11.088 13.372,-28.419 -5.701,-12.566 -18.453,-17.715 -24.813,-28.583 -4.066,-6.945 0.123,-16.35 -10.592,-18.482 -11.409,-2.274 -29.72,24.398 -24.445,29.579"
       id="path3" />
    <path
       style="fill:#ff177d;fill-rule:evenodd;stroke-width:1.01100004000000010;stroke-miterlimit:4;stroke-dasharray:none;"
       d="m 192.02957,371.03833 c 4.377,-4.101 11.661,-1.723 11.6,5.606 -0.09,10.868 -19.591,8.473 -11.6,-5.606"
       id="path5" />
    <path
       style="fill:#ff177d;fill-rule:evenodd;stroke-width:1.01100004000000010;stroke-miterlimit:4;stroke-dasharray:none;"
       d="m 196.55557,371.83333 c -0.211,-0.406 2.179,-2.479 -2.132,-1.152 0.369,2.002 2.413,1.697 2.132,1.152"
       id="path7" />
    <path
       style="fill:#ff59de;fill-rule:evenodd;stroke-width:1.01100004000000010;stroke-miterlimit:4;stroke-dasharray:none;"
       d="m 195.36357,367.11833 c 9.921,-6.155 17.822,6.865 10.456,14.338 -6.455,6.548 -11.66,14.558 -9.123,24.112 2.845,10.719 42.449,46.978 41.741,20.677 -8.299,5.296 -40.174,-18.717 -38.454,-31.446 1.347,-9.971 13.344,-11.729 9.779,-22.983 -2.728,-8.616 -10.173,-10.118 -14.399,-4.698"
       id="path9" />
    <path
       style="fill:#ff59de;fill-rule:evenodd;stroke-width:1.01100004000000010;stroke-miterlimit:4;stroke-dasharray:none;"
       d="m 198.00657,384.82233 c -10.932,1.333 -22.278,2.443 -8.896,-10.416 -3.466,7.766 2.773,12.995 8.896,10.416"
       id="path11" />
    <path
       style="fill:#ff59de;fill-rule:evenodd;stroke-width:1.01100004000000010;stroke-miterlimit:4;stroke-dasharray:none;"
       d="m 179.21957,390.07433 c -8.204,7.898 -2.173,13.177 5.297,15.846 -0.495,-5.94 -1.976,-11.995 -5.297,-15.846"
       id="path13" />
    <path
       style="fill:#ff59de;fill-rule:evenodd;stroke-width:1.01100004000000010;stroke-miterlimit:4;stroke-dasharray:none;"
       d="m 207.03957,363.41533 c 12.337,12.064 -0.648,25.435 7.797,37.484 5.368,7.657 29.008,22.898 22.47,30.9 4.683,-9.166 -21.884,-22.462 -26.177,-32.792 -5.374,-12.933 4.54,-22.577 -4.09,-35.592"
       id="path15" />
    <path
       style="fill:#007300;fill-rule:evenodd;stroke-width:1.01100004000000010;stroke-miterlimit:4;stroke-dasharray:none;"
       d="m 216.77257,441.71033 c 6.198,-7.259 13.45,-3.378 20.534,-9.911 1.912,7.697 -1.572,13.755 -1.236,21.216 0.401,8.901 4.76,18.817 8.214,27.152 19.164,46.259 34.087,94.8 53.142,141.293 -24.382,-42.661 -36.669,-91.246 -57.216,-135.792 -5.651,-12.252 -20.526,-55.153 -38.071,-30.521 2.909,-10.274 3.951,-14.161 14.633,-13.437"
       id="path17" />
    <path
       style="fill:#007300;fill-rule:evenodd;stroke-width:1.01100004000000010;stroke-miterlimit:4;stroke-dasharray:none;"
       d="m 237.30657,431.80033 c 7.592,-8.614 1.623,-17.806 17.382,-11.405 17.392,7.064 19.392,31.778 24.729,47.681 -3.97,-10.698 -8.094,-25.676 -18.4,-31.502 3.469,3.683 4.751,8.076 3.914,13.12 -1.651,-10.287 -11.011,-16.714 -17.597,-22.82 6.193,5.188 9.095,11.392 7.31,19.463 -0.389,-9.912 -6.303,-22.545 -17.338,-14.537"
       id="path19" />
    <path
       style="fill:#00ff73;fill-rule:evenodd;stroke-width:1.01100004000000010;stroke-miterlimit:4;stroke-dasharray:none;"
       d="m 242.62657,418.28033 c -0.285,4.379 24.331,18.498 28.79,28.971 -5.215,-17.039 -11.409,-25.388 -28.79,-28.971"
       id="path21" />
    <path
       style="fill:#00ff73;fill-rule:evenodd;stroke-width:1.01100004000000010;stroke-miterlimit:4;stroke-dasharray:none;"
       d="m 225.38257,440.42633 c 4.705,0.251 7.832,0.979 10.649,-4.035 -0.198,12.048 -4.722,26.713 4.406,36.036 -9.39,-9.841 -11.064,-21.585 -18.882,-31.431 -0.721,0.108 6.314,-0.779 3.827,-0.57"
       id="path23" />
  </g>
</svg>
